<svg id="Layer_1" data-name="Layer 1" xmlns="http://www.w3.org/2000/svg" viewBox="0 0 1156.22 504.11"><defs><style>.cls-1{fill:none;stroke:#707070;stroke-miterlimit:10;stroke-width:17px;}.cls-2{fill:#7ac9c6;}</style></defs><title>refugiologo</title><polyline class="cls-1" points="1147.72 281.31 1147.45 112.64 997.93 10.3 848.41 112.64 848.41 277.97"/><path class="cls-2" d="M439.82,505q-14,0-25.13,10.93t-11.14,24.22v80.51H385.78V491h16.83v18.25q11.37-21.09,35.31-21.1h1.9Z" transform="translate(-385.78 -342.69)"/><path class="cls-2" d="M634.39,562.13H517.08q0,18.25,15,31.52a51.22,51.22,0,0,0,62,5.21q12.83-8.05,18.05-20.38h18.77q-8.07,20.87-25.36,33.06a65.45,65.45,0,0,1-38.63,12.21q-27.74,0-47.64-19.91T499.3,555.73q0-28.2,19.67-47.87t48.11-19.68A66.34,66.34,0,0,1,606.54,501q17.9,12.79,24.06,32.71a100,100,0,0,1,3,12.91A112.27,112.27,0,0,1,634.39,562.13Zm-17.77-15.88q-4.75-18.82-18.3-30a50.47,50.47,0,0,0-63.43,0q-13.54,11.21-17.81,30Z" transform="translate(-385.78 -342.69)"/><path class="cls-2" d="M765,507.14H732.75V620.67H715V507.14H694.59V491H715v-4q0-18.72,12-30.1t33.49-11.38h1.18l2.83,16.12h-3.08q-14.92,0-21.8,6.87T732.75,491H765Z" transform="translate(-385.78 -342.69)"/><path class="cls-2" d="M942,620.67H925.19V601.23q-8.54,12.57-18.13,17.54t-25.24,5a51.2,51.2,0,0,1-32.47-11.14q-12.57-9.72-17.07-19.32t-4.5-27.13V491h17.78v74.18q0,18.72,10.78,30.22t28.32,11.49q16.83,0,28.2-11.61t11.38-28.68V491H942Z" transform="translate(-385.78 -342.69)"/><path class="cls-2" d="M1148.91,612.37q0,24.89-19,42t-46.69,17.06q-23,0-40.52-13T1019,623.51h17.3q16.58,31.05,47.16,31,19.43,0,32.71-10.67a39.72,39.72,0,0,0,15.16-27.49q.48-3.79.48-15.64v-5a44.72,44.72,0,0,1-19.32,20.62q-13.15,7.35-30.45,7.35-28.21,0-48.11-19.44t-19.91-47.4q0-29.14,19.31-48.94t47.29-19.79q33.88,0,51.19,27.26V491h17.06Zm-17.06-56.52q0-21.39-15-36.11T1080.53,505q-20.9,0-34.8,14.37t-13.9,36.23q0,21.85,14.26,36.58t35.4,14.73a48.18,48.18,0,0,0,35.63-15A49.62,49.62,0,0,0,1131.85,555.85Z" transform="translate(-385.78 -342.69)"/><path class="cls-2" d="M1242.7,620.67h-17V491h17Z" transform="translate(-385.78 -342.69)"/><path class="cls-2" d="M1451.32,556.2q0,28-20,47.76t-48,19.79q-27.49,0-47.4-19.91T1316,556.2q0-27.72,19.91-47.87t47.64-20.15q27.72,0,47.75,20T1451.32,556.2Zm-17.77-.83q0-21.14-14.55-35.75T1383.42,505q-20.58,0-35.11,15.09a50.3,50.3,0,0,0-14.54,36.22A49.16,49.16,0,0,0,1348.43,592q14.65,15,35.23,15A47.22,47.22,0,0,0,1419,591.84Q1433.55,576.75,1433.55,555.37Z" transform="translate(-385.78 -342.69)"/><text x="-385.78" y="-342.69"/></svg>