<!-- Generator: Adobe Illustrator 23.0.4, SVG Export Plug-In . SVG Version: 6.00 Build 0)  -->
<svg version="1.1" id="Layer_1" xmlns="http://www.w3.org/2000/svg" xmlns:xlink="http://www.w3.org/1999/xlink" x="0px" y="0px"
	 viewBox="0 0 316 281.2" style="enable-background:new 0 0 316 281.2;" xml:space="preserve">
<style type="text/css">
	.st0{fill:none;stroke:#7AC9C6;stroke-width:13.3754;stroke-miterlimit:10;}
	.st1{fill:#7AC9C6;}
</style>
<title>refugioicon</title>
<g>
	<g id="Layer_1-2">
		<polyline class="st0"  points="275.6,247.1 275.4,114.5 157.9,34 40.4,114.5 40.4,244.8 		"/>
		<path  class="st1" d="M211,193.8c0,14.7-5.2,27.2-15.7,37.6c-10.5,10.4-23.1,15.6-37.8,15.6c-14.4,0-26.9-5.2-37.3-15.7
			c-10.4-10.4-15.7-22.9-15.7-37.5c0-14.6,5.2-27.1,15.7-37.7c10.4-10.6,22.9-15.8,37.5-15.9c14.5,0,27.1,5.2,37.6,15.7
			S211,179.1,211,193.8z M197,193.2c0-11.1-3.8-20.5-11.4-28.1c-7.6-7.7-17-11.5-28-11.5c-10.8,0-20,4-27.6,11.9
			c-7.5,7.6-11.6,17.8-11.4,28.5c-0.1,10.5,4,20.7,11.5,28c7.7,7.9,16.9,11.8,27.7,11.8c10.5,0.2,20.6-4.2,27.8-11.9
			C193.2,213.9,197,204.4,197,193.2z"/>
	</g>
</g>
</svg>
